<svg width="150" height="42" viewBox="0 0 150 42" fill="none" xmlns="http://www.w3.org/2000/svg">
<path d="M54.3719 11.3104V29.5H50.6241V11.3104H54.3719ZM61.6178 19.081V22.0043H53.3475V19.081H61.6178ZM62.4923 11.3104V14.2462H53.3475V11.3104H62.4923ZM68.239 15.9828V29.5H64.6285V15.9828H68.239ZM64.4037 12.4598C64.4037 11.9351 64.5869 11.502 64.9534 11.1605C65.3198 10.819 65.8112 10.6483 66.4275 10.6483C67.0355 10.6483 67.5227 10.819 67.8892 11.1605C68.264 11.502 68.4513 11.9351 68.4513 12.4598C68.4513 12.9845 68.264 13.4176 67.8892 13.759C67.5227 14.1005 67.0355 14.2712 66.4275 14.2712C65.8112 14.2712 65.3198 14.1005 64.9534 13.759C64.5869 13.4176 64.4037 12.9845 64.4037 12.4598ZM74.7352 18.8686V29.5H71.1373V15.9828H74.5104L74.7352 18.8686ZM74.2105 22.2666H73.2361C73.2361 21.2672 73.3652 20.3677 73.6234 19.5682C73.8816 18.7603 74.2439 18.0732 74.7103 17.5069C75.1767 16.9322 75.7305 16.495 76.3718 16.1951C77.0214 15.887 77.746 15.7329 78.5456 15.7329C79.1785 15.7329 79.7574 15.8245 80.2821 16.0077C80.8068 16.191 81.2565 16.4825 81.6313 16.8822C82.0144 17.282 82.3059 17.8109 82.5058 18.4688C82.714 19.1268 82.8181 19.9305 82.8181 20.8799V29.5H79.1952V20.8675C79.1952 20.2678 79.1119 19.8014 78.9453 19.4683C78.7788 19.1351 78.5331 18.9019 78.2082 18.7687C77.8918 18.6271 77.5003 18.5563 77.0339 18.5563C76.5509 18.5563 76.1303 18.6521 75.7721 18.8436C75.4223 19.0352 75.1308 19.3017 74.8976 19.6432C74.6728 19.9763 74.502 20.3677 74.3854 20.8175C74.2688 21.2672 74.2105 21.7503 74.2105 22.2666ZM93.9117 11.3104V29.5H90.1764V11.3104H93.9117ZM99.5085 11.3104V14.2462H84.667V11.3104H99.5085ZM104.143 18.9311V29.5H100.545V15.9828H103.931L104.143 18.9311ZM108.216 15.8953L108.154 19.2309C107.979 19.2059 107.766 19.1851 107.516 19.1684C107.275 19.1434 107.054 19.1309 106.854 19.1309C106.346 19.1309 105.905 19.1976 105.53 19.3308C105.164 19.4558 104.855 19.6432 104.606 19.893C104.364 20.1429 104.181 20.4469 104.056 20.805C103.939 21.1631 103.873 21.5712 103.856 22.0293L103.131 21.8044C103.131 20.9299 103.219 20.1262 103.394 19.3933C103.569 18.6521 103.823 18.0066 104.156 17.4569C104.497 16.9072 104.914 16.4825 105.405 16.1826C105.897 15.8828 106.459 15.7329 107.092 15.7329C107.292 15.7329 107.496 15.7496 107.704 15.7829C107.912 15.8079 108.083 15.8453 108.216 15.8953ZM116.786 26.4517V20.4302C116.786 19.9971 116.715 19.6265 116.574 19.3183C116.432 19.0019 116.211 18.7562 115.912 18.5813C115.62 18.4064 115.241 18.3189 114.775 18.3189C114.375 18.3189 114.029 18.3897 113.738 18.5313C113.446 18.6645 113.222 18.8603 113.063 19.1185C112.905 19.3683 112.826 19.664 112.826 20.0054H109.228C109.228 19.4308 109.361 18.8853 109.628 18.3689C109.894 17.8525 110.282 17.3986 110.79 17.0072C111.298 16.6074 111.901 16.2951 112.601 16.0702C113.309 15.8453 114.1 15.7329 114.975 15.7329C116.024 15.7329 116.957 15.9078 117.773 16.2576C118.589 16.6074 119.231 17.1321 119.697 17.8317C120.172 18.5313 120.409 19.4058 120.409 20.4552V26.2394C120.409 26.9806 120.455 27.5886 120.546 28.0633C120.638 28.5297 120.771 28.9378 120.946 29.2876V29.5H117.311C117.136 29.1335 117.003 28.6755 116.911 28.1258C116.828 27.5678 116.786 27.0098 116.786 26.4517ZM117.261 21.2672L117.286 23.3036H115.274C114.8 23.3036 114.387 23.3577 114.038 23.466C113.688 23.5742 113.401 23.7283 113.176 23.9282C112.951 24.1198 112.784 24.3446 112.676 24.6028C112.576 24.861 112.526 25.1442 112.526 25.4523C112.526 25.7605 112.597 26.0395 112.738 26.2893C112.88 26.5309 113.084 26.7224 113.351 26.864C113.617 26.9973 113.929 27.0639 114.288 27.0639C114.829 27.0639 115.299 26.9556 115.699 26.7391C116.099 26.5225 116.407 26.256 116.624 25.9395C116.849 25.6231 116.965 25.3232 116.974 25.0401L117.923 26.5642C117.79 26.9057 117.606 27.2596 117.373 27.6261C117.148 27.9925 116.861 28.3382 116.511 28.663C116.161 28.9795 115.741 29.2418 115.25 29.45C114.758 29.6499 114.175 29.7499 113.501 29.7499C112.643 29.7499 111.864 29.5791 111.164 29.2377C110.473 28.8879 109.923 28.409 109.515 27.801C109.116 27.1847 108.916 26.4851 108.916 25.7022C108.916 24.9943 109.049 24.3654 109.315 23.8158C109.582 23.2661 109.973 22.8038 110.49 22.4291C111.014 22.0459 111.668 21.7586 112.451 21.5671C113.234 21.3672 114.142 21.2672 115.175 21.2672H117.261ZM128.767 26.939C129.208 26.939 129.6 26.8557 129.941 26.6891C130.283 26.5142 130.549 26.2727 130.741 25.9645C130.941 25.648 131.045 25.2774 131.053 24.8527H134.438C134.43 25.8021 134.176 26.6475 133.676 27.3887C133.177 28.1216 132.506 28.7005 131.665 29.1252C130.824 29.5416 129.883 29.7499 128.842 29.7499C127.792 29.7499 126.876 29.575 126.093 29.2252C125.319 28.8754 124.673 28.3923 124.157 27.776C123.641 27.1513 123.253 26.4268 122.995 25.6022C122.737 24.7694 122.608 23.8782 122.608 22.9288V22.5665C122.608 21.6087 122.737 20.7175 122.995 19.893C123.253 19.0602 123.641 18.3356 124.157 17.7193C124.673 17.0946 125.319 16.6074 126.093 16.2576C126.868 15.9078 127.776 15.7329 128.817 15.7329C129.924 15.7329 130.895 15.9453 131.728 16.37C132.569 16.7948 133.227 17.4028 133.701 18.194C134.184 18.9769 134.43 19.9055 134.438 20.9799H131.053C131.045 20.5301 130.949 20.122 130.766 19.7556C130.591 19.3891 130.333 19.0976 129.991 18.8811C129.658 18.6562 129.246 18.5438 128.754 18.5438C128.23 18.5438 127.801 18.6562 127.467 18.8811C127.134 19.0976 126.876 19.3975 126.693 19.7806C126.51 20.1554 126.381 20.5843 126.306 21.0673C126.239 21.5421 126.206 22.0418 126.206 22.5665V22.9288C126.206 23.4535 126.239 23.9573 126.306 24.4404C126.372 24.9235 126.497 25.3524 126.68 25.7272C126.872 26.1019 127.134 26.3976 127.467 26.6142C127.801 26.8307 128.234 26.939 128.767 26.939ZM140.123 10.2985V29.5H136.525V10.2985H140.123ZM148.643 15.9828L142.771 22.6789L139.623 25.8646L138.311 23.2661L140.81 20.0929L144.32 15.9828H148.643ZM144.907 29.5L140.91 23.2536L143.396 21.0798L149.055 29.5H144.907Z" fill="#E1E1E6"/>
<g clip-path="url(#clip0_42215_437)">
<path d="M20 39.2001C30.6039 39.2001 39.2 30.6039 39.2 20C39.2 9.39618 30.6039 0.800049 20 0.800049C9.39614 0.800049 0.800003 9.39618 0.800003 20C0.800003 30.6039 9.39614 39.2001 20 39.2001Z" fill="#57386B"/>
<path d="M15.2 16H12.8C12.3582 16 12 16.3582 12 16.8V27.2C12 27.6418 12.3582 28 12.8 28H15.2C15.6418 28 16 27.6418 16 27.2V16.8C16 16.3582 15.6418 16 15.2 16Z" fill="#AA7FCC"/>
<path d="M21.2 12H18.8C18.3582 12 18 12.3582 18 12.8V27.2C18 27.6418 18.3582 28 18.8 28H21.2C21.6418 28 22 27.6418 22 27.2V12.8C22 12.3582 21.6418 12 21.2 12Z" fill="#7F4FA1"/>
<path d="M27.2 8H24.8C24.3582 8 24 8.35817 24 8.8V27.2C24 27.6418 24.3582 28 24.8 28H27.2C27.6418 28 28 27.6418 28 27.2V8.8C28 8.35817 27.6418 8 27.2 8Z" fill="#AA7FCC"/>
<path d="M20 14C21.1046 14 22 13.1046 22 12C22 10.8954 21.1046 10 20 10C18.8954 10 18 10.8954 18 12C18 13.1046 18.8954 14 20 14Z" fill="#7F4FA1"/>
</g>
<defs>
<clipPath id="clip0_42215_437">
<rect width="40" height="40" fill="white"/>
</clipPath>
</defs>
</svg>
